<svg width="64" height="68" viewBox="0 0 64 68" fill="none" xmlns="http://www.w3.org/2000/svg">
<path d="M20.3486 10.9343L7.04188 27.112C5.80734 28.6292 5.47487 30.6803 6.15068 32.4665L13.4826 52.1537C14.1777 53.991 15.7846 55.3083 17.7142 55.6284L38.3846 59.0676C40.3143 59.3876 42.2536 58.6539 43.4882 57.1367L56.846 40.9397C58.0805 39.4225 58.413 37.3715 57.7372 35.5852L50.3542 15.9173C49.6591 14.08 48.0522 12.7627 46.1226 12.4427L25.4715 9.05446C23.5418 8.7344 21.5832 9.41711 20.3486 10.9343Z" fill="#1DB0B1"/>
<path d="M31.9498 47.7383C39.3333 47.7383 45.3189 41.7528 45.3189 34.3692C45.3189 26.9856 39.3333 21 31.9498 21C24.5662 21 18.5806 26.9856 18.5806 34.3692C18.5806 41.7528 24.5662 47.7383 31.9498 47.7383Z" fill="#0F3F62"/>
<path d="M31.939 44.8918C37.755 44.8918 42.4698 40.177 42.4698 34.361C42.4698 28.545 37.755 23.8302 31.939 23.8302C26.123 23.8302 21.4082 28.545 21.4082 34.361C21.4082 40.177 26.123 44.8918 31.939 44.8918Z" fill="#54C1FB"/>
<path d="M32.005 10.6262C32.4415 10.6262 32.8781 10.7354 33.26 10.9536L51.3759 21.5394C52.1399 21.976 52.5764 22.7944 52.5764 23.6675L52.5218 44.6754C52.5218 45.5485 52.0307 46.367 51.2668 46.8035L33.0963 57.171C32.7144 57.3893 32.2778 57.4984 31.8959 57.4984C31.4594 57.4984 31.0228 57.3893 30.6409 57.171L12.4704 46.6398C11.7065 46.2033 11.2699 45.3848 11.2699 44.5117L11.3245 23.5038C11.3245 22.6307 11.8156 21.8123 12.5795 21.3757L30.8046 10.9536C31.132 10.7354 31.5685 10.6262 32.005 10.6262ZM32.005 7.62509C31.0774 7.62509 30.1498 7.84336 29.2767 8.33445L11.1062 18.7566C9.41469 19.7387 8.37793 21.5394 8.37793 23.4492L8.2688 44.4571C8.2688 46.4215 9.30555 48.2222 10.9971 49.2044L29.113 59.7356C29.9861 60.2267 30.9137 60.4996 31.8413 60.4996C32.7689 60.4996 33.6966 60.2813 34.5696 59.7902L52.7947 49.3681C54.4862 48.3859 55.523 46.5852 55.523 44.6754L55.5775 23.6675C55.5775 21.7031 54.5408 19.9024 52.8492 18.9203L34.7333 8.38902C33.9148 7.89792 32.9326 7.62509 32.005 7.62509Z" fill="#54C1FB"/>
<path d="M32.2234 28.9224L33.6966 32.3055C33.7512 32.4147 33.8058 32.4692 33.9149 32.4692L37.5708 32.7966C37.8437 32.7966 37.9528 33.1786 37.7345 33.3423L34.9517 35.7432C34.8971 35.7977 34.8425 35.9069 34.8971 35.9614L35.7156 39.5628C35.7701 39.8356 35.4973 40.0539 35.2245 39.8902L32.0597 37.9804C32.0051 37.9258 31.896 37.9258 31.7868 37.9804L28.622 39.8902C28.4037 40.0539 28.0763 39.8356 28.1309 39.5628L28.9494 35.9614C28.9494 35.8523 28.9494 35.7977 28.8948 35.7432L26.112 33.3423C25.8937 33.1786 26.0028 32.7966 26.2757 32.7966L29.9316 32.4692C30.0407 32.4692 30.0953 32.4147 30.1498 32.3055L31.6231 28.9224C31.7323 28.7042 32.1142 28.7042 32.2234 28.9224Z" fill="#0F3F62"/>
</svg>
